<?xml version="1.0"?><svg xmlns="http://www.w3.org/2000/svg" viewBox="0 0 512 512" width="512" height="512">
<title>OSRS Activity</title>
<defs><filter id="bloom" x="-20%" y="-20%" width="140%" height="140%"><feGaussianBlur stdDeviation="14.5"></feGaussianBlur></filter></defs>
<rect width="512" height="512" rx="28" fill="#05060a"></rect>
<g><rect x="54.16" y="54.16" width="26.68" height="26.68" rx="3.20" fill="#e2e2ff" fill-opacity="0.06"></rect><rect x="83.16" y="54.16" width="26.68" height="26.68" rx="3.20" fill="#e2e2ff" fill-opacity="0.06"></rect><rect x="112.16" y="54.16" width="26.68" height="26.68" rx="3.20" fill="#e2e2ff" fill-opacity="0.06"></rect><rect x="141.16" y="54.16" width="26.68" height="26.68" rx="3.20" fill="#e2e2ff" fill-opacity="0.06"></rect><rect x="170.16" y="54.16" width="26.68" height="26.68" rx="3.20" fill="#e2e2ff" fill-opacity="0.06"></rect><rect x="199.16" y="54.16" width="26.68" height="26.68" rx="3.20" fill="#e2e2ff" fill-opacity="0.06"></rect><rect x="228.16" y="54.16" width="26.68" height="26.68" rx="3.20" fill="#e2e2ff" fill-opacity="0.06"></rect><rect x="257.16" y="54.16" width="26.68" height="26.68" rx="3.20" fill="#e2e2ff" fill-opacity="0.06"></rect><rect x="286.16" y="54.16" width="26.68" height="26.68" rx="3.20" fill="#e2e2ff" fill-opacity="0.06"></rect><rect x="315.16" y="54.16" width="26.68" height="26.68" rx="3.20" fill="#e2e2ff" fill-opacity="0.06"></rect><rect x="344.16" y="54.16" width="26.68" height="26.68" rx="3.20" fill="#e2e2ff" fill-opacity="0.06"></rect><rect x="373.16" y="54.16" width="26.68" height="26.68" rx="3.20" fill="#e2e2ff" fill-opacity="0.06"></rect><rect x="402.16" y="54.16" width="26.68" height="26.68" rx="3.20" fill="#e2e2ff" fill-opacity="0.06"></rect><rect x="431.16" y="54.16" width="26.68" height="26.68" rx="3.20" fill="#e2e2ff" fill-opacity="0.06"></rect><rect x="54.16" y="83.16" width="26.68" height="26.68" rx="3.20" fill="#e2e2ff" fill-opacity="0.06"></rect><rect x="431.16" y="83.16" width="26.68" height="26.68" rx="3.20" fill="#e2e2ff" fill-opacity="0.06"></rect><rect x="54.16" y="112.16" width="26.68" height="26.68" rx="3.20" fill="#e2e2ff" fill-opacity="0.06"></rect><rect x="83.16" y="112.16" width="26.68" height="26.68" rx="3.20" fill="#e2e2ff" fill-opacity="0.06"></rect><rect x="112.16" y="112.16" width="26.68" height="26.68" rx="3.20" fill="#e2e2ff" fill-opacity="0.06"></rect><rect x="141.16" y="112.16" width="26.68" height="26.68" rx="3.20" fill="#e2e2ff" fill-opacity="0.06"></rect><rect x="170.16" y="112.16" width="26.68" height="26.68" rx="3.20" fill="#e2e2ff" fill-opacity="0.06"></rect><rect x="199.16" y="112.16" width="26.68" height="26.68" rx="3.20" fill="#e2e2ff" fill-opacity="0.06"></rect><rect x="228.16" y="112.16" width="26.68" height="26.68" rx="3.20" fill="#e2e2ff" fill-opacity="0.06"></rect><rect x="257.16" y="112.16" width="26.68" height="26.68" rx="3.20" fill="#e2e2ff" fill-opacity="0.06"></rect><rect x="286.16" y="112.16" width="26.68" height="26.68" rx="3.20" fill="#e2e2ff" fill-opacity="0.06"></rect><rect x="315.16" y="112.16" width="26.68" height="26.68" rx="3.20" fill="#e2e2ff" fill-opacity="0.06"></rect><rect x="344.16" y="112.16" width="26.68" height="26.68" rx="3.20" fill="#e2e2ff" fill-opacity="0.06"></rect><rect x="373.16" y="112.16" width="26.68" height="26.68" rx="3.20" fill="#e2e2ff" fill-opacity="0.06"></rect><rect x="402.16" y="112.16" width="26.68" height="26.68" rx="3.20" fill="#e2e2ff" fill-opacity="0.06"></rect><rect x="431.16" y="112.16" width="26.68" height="26.68" rx="3.20" fill="#e2e2ff" fill-opacity="0.06"></rect><rect x="54.16" y="141.16" width="26.68" height="26.68" rx="3.20" fill="#e2e2ff" fill-opacity="0.06"></rect><rect x="83.16" y="141.16" width="26.68" height="26.68" rx="3.20" fill="#e2e2ff" fill-opacity="0.06"></rect><rect x="112.16" y="141.16" width="26.68" height="26.68" rx="3.20" fill="#e2e2ff" fill-opacity="0.06"></rect><rect x="141.16" y="141.16" width="26.68" height="26.68" rx="3.20" fill="#e2e2ff" fill-opacity="0.06"></rect><rect x="170.16" y="141.16" width="26.68" height="26.68" rx="3.20" fill="#e2e2ff" fill-opacity="0.06"></rect><rect x="199.16" y="141.16" width="26.68" height="26.68" rx="3.20" fill="#e2e2ff" fill-opacity="0.06"></rect><rect x="228.16" y="141.16" width="26.68" height="26.68" rx="3.20" fill="#e2e2ff" fill-opacity="0.06"></rect><rect x="257.16" y="141.16" width="26.68" height="26.68" rx="3.20" fill="#e2e2ff" fill-opacity="0.06"></rect><rect x="286.16" y="141.16" width="26.68" height="26.68" rx="3.20" fill="#e2e2ff" fill-opacity="0.06"></rect><rect x="315.16" y="141.16" width="26.68" height="26.68" rx="3.20" fill="#e2e2ff" fill-opacity="0.06"></rect><rect x="344.16" y="141.16" width="26.68" height="26.68" rx="3.20" fill="#e2e2ff" fill-opacity="0.06"></rect><rect x="373.16" y="141.16" width="26.68" height="26.68" rx="3.20" fill="#e2e2ff" fill-opacity="0.06"></rect><rect x="402.16" y="141.16" width="26.68" height="26.68" rx="3.20" fill="#e2e2ff" fill-opacity="0.06"></rect><rect x="431.16" y="141.16" width="26.68" height="26.68" rx="3.20" fill="#e2e2ff" fill-opacity="0.06"></rect><rect x="54.16" y="170.16" width="26.68" height="26.68" rx="3.20" fill="#e2e2ff" fill-opacity="0.06"></rect><rect x="373.16" y="170.16" width="26.68" height="26.68" rx="3.20" fill="#e2e2ff" fill-opacity="0.06"></rect><rect x="402.16" y="170.16" width="26.68" height="26.68" rx="3.20" fill="#e2e2ff" fill-opacity="0.06"></rect><rect x="431.16" y="170.16" width="26.68" height="26.68" rx="3.20" fill="#e2e2ff" fill-opacity="0.06"></rect><rect x="54.16" y="199.16" width="26.68" height="26.68" rx="3.20" fill="#e2e2ff" fill-opacity="0.06"></rect><rect x="373.16" y="199.16" width="26.68" height="26.68" rx="3.20" fill="#e2e2ff" fill-opacity="0.06"></rect><rect x="402.16" y="199.16" width="26.68" height="26.68" rx="3.20" fill="#e2e2ff" fill-opacity="0.06"></rect><rect x="431.16" y="199.16" width="26.68" height="26.68" rx="3.20" fill="#e2e2ff" fill-opacity="0.06"></rect><rect x="54.16" y="228.16" width="26.68" height="26.68" rx="3.20" fill="#e2e2ff" fill-opacity="0.06"></rect><rect x="83.16" y="228.16" width="26.68" height="26.68" rx="3.20" fill="#e2e2ff" fill-opacity="0.06"></rect><rect x="112.16" y="228.16" width="26.68" height="26.68" rx="3.20" fill="#e2e2ff" fill-opacity="0.06"></rect><rect x="141.16" y="228.16" width="26.68" height="26.68" rx="3.20" fill="#e2e2ff" fill-opacity="0.06"></rect><rect x="170.16" y="228.16" width="26.68" height="26.68" rx="3.20" fill="#e2e2ff" fill-opacity="0.06"></rect><rect x="199.16" y="228.16" width="26.68" height="26.68" rx="3.20" fill="#e2e2ff" fill-opacity="0.06"></rect><rect x="228.16" y="228.16" width="26.68" height="26.68" rx="3.20" fill="#e2e2ff" fill-opacity="0.06"></rect><rect x="257.16" y="228.16" width="26.68" height="26.68" rx="3.20" fill="#e2e2ff" fill-opacity="0.06"></rect><rect x="286.16" y="228.16" width="26.68" height="26.68" rx="3.20" fill="#e2e2ff" fill-opacity="0.06"></rect><rect x="315.16" y="228.16" width="26.68" height="26.68" rx="3.20" fill="#e2e2ff" fill-opacity="0.06"></rect><rect x="344.16" y="228.16" width="26.68" height="26.68" rx="3.20" fill="#e2e2ff" fill-opacity="0.06"></rect><rect x="373.16" y="228.16" width="26.68" height="26.68" rx="3.20" fill="#e2e2ff" fill-opacity="0.06"></rect><rect x="402.16" y="228.16" width="26.68" height="26.68" rx="3.20" fill="#e2e2ff" fill-opacity="0.06"></rect><rect x="431.16" y="228.16" width="26.68" height="26.68" rx="3.20" fill="#e2e2ff" fill-opacity="0.06"></rect><rect x="54.16" y="257.16" width="26.68" height="26.68" rx="3.20" fill="#e2e2ff" fill-opacity="0.06"></rect><rect x="286.16" y="257.16" width="26.68" height="26.68" rx="3.20" fill="#e2e2ff" fill-opacity="0.06"></rect><rect x="315.16" y="257.16" width="26.68" height="26.68" rx="3.20" fill="#e2e2ff" fill-opacity="0.06"></rect><rect x="344.16" y="257.16" width="26.68" height="26.68" rx="3.20" fill="#e2e2ff" fill-opacity="0.06"></rect><rect x="373.16" y="257.16" width="26.68" height="26.68" rx="3.20" fill="#e2e2ff" fill-opacity="0.06"></rect><rect x="402.16" y="257.16" width="26.68" height="26.68" rx="3.20" fill="#e2e2ff" fill-opacity="0.06"></rect><rect x="431.16" y="257.16" width="26.68" height="26.68" rx="3.20" fill="#e2e2ff" fill-opacity="0.06"></rect><rect x="54.16" y="286.16" width="26.68" height="26.68" rx="3.20" fill="#e2e2ff" fill-opacity="0.06"></rect><rect x="286.16" y="286.16" width="26.68" height="26.68" rx="3.20" fill="#e2e2ff" fill-opacity="0.06"></rect><rect x="315.16" y="286.16" width="26.68" height="26.68" rx="3.20" fill="#e2e2ff" fill-opacity="0.06"></rect><rect x="344.16" y="286.16" width="26.68" height="26.68" rx="3.20" fill="#e2e2ff" fill-opacity="0.06"></rect><rect x="373.16" y="286.16" width="26.68" height="26.68" rx="3.20" fill="#e2e2ff" fill-opacity="0.06"></rect><rect x="402.16" y="286.16" width="26.68" height="26.68" rx="3.20" fill="#e2e2ff" fill-opacity="0.06"></rect><rect x="431.16" y="286.16" width="26.68" height="26.68" rx="3.20" fill="#e2e2ff" fill-opacity="0.06"></rect><rect x="54.16" y="315.16" width="26.68" height="26.68" rx="3.20" fill="#e2e2ff" fill-opacity="0.06"></rect><rect x="83.16" y="315.16" width="26.68" height="26.68" rx="3.20" fill="#e2e2ff" fill-opacity="0.06"></rect><rect x="112.16" y="315.16" width="26.68" height="26.68" rx="3.20" fill="#e2e2ff" fill-opacity="0.06"></rect><rect x="141.16" y="315.16" width="26.68" height="26.68" rx="3.20" fill="#e2e2ff" fill-opacity="0.06"></rect><rect x="170.16" y="315.16" width="26.68" height="26.68" rx="3.20" fill="#e2e2ff" fill-opacity="0.06"></rect><rect x="199.16" y="315.16" width="26.68" height="26.68" rx="3.20" fill="#e2e2ff" fill-opacity="0.06"></rect><rect x="228.16" y="315.16" width="26.68" height="26.68" rx="3.20" fill="#e2e2ff" fill-opacity="0.06"></rect><rect x="257.16" y="315.16" width="26.68" height="26.68" rx="3.20" fill="#e2e2ff" fill-opacity="0.06"></rect><rect x="286.16" y="315.16" width="26.68" height="26.68" rx="3.20" fill="#e2e2ff" fill-opacity="0.06"></rect><rect x="315.16" y="315.16" width="26.68" height="26.68" rx="3.20" fill="#e2e2ff" fill-opacity="0.06"></rect><rect x="344.16" y="315.16" width="26.68" height="26.68" rx="3.20" fill="#e2e2ff" fill-opacity="0.06"></rect><rect x="373.16" y="315.16" width="26.68" height="26.68" rx="3.20" fill="#e2e2ff" fill-opacity="0.06"></rect><rect x="402.16" y="315.16" width="26.68" height="26.68" rx="3.20" fill="#e2e2ff" fill-opacity="0.06"></rect><rect x="431.16" y="315.16" width="26.68" height="26.68" rx="3.20" fill="#e2e2ff" fill-opacity="0.06"></rect><rect x="54.16" y="344.16" width="26.68" height="26.68" rx="3.20" fill="#e2e2ff" fill-opacity="0.06"></rect><rect x="199.16" y="344.16" width="26.68" height="26.68" rx="3.20" fill="#e2e2ff" fill-opacity="0.06"></rect><rect x="228.16" y="344.16" width="26.68" height="26.68" rx="3.20" fill="#e2e2ff" fill-opacity="0.06"></rect><rect x="257.16" y="344.16" width="26.68" height="26.68" rx="3.20" fill="#e2e2ff" fill-opacity="0.06"></rect><rect x="286.16" y="344.16" width="26.68" height="26.68" rx="3.20" fill="#e2e2ff" fill-opacity="0.06"></rect><rect x="315.16" y="344.16" width="26.68" height="26.68" rx="3.20" fill="#e2e2ff" fill-opacity="0.06"></rect><rect x="344.16" y="344.16" width="26.68" height="26.68" rx="3.20" fill="#e2e2ff" fill-opacity="0.06"></rect><rect x="373.16" y="344.16" width="26.68" height="26.68" rx="3.20" fill="#e2e2ff" fill-opacity="0.06"></rect><rect x="402.16" y="344.16" width="26.68" height="26.68" rx="3.20" fill="#e2e2ff" fill-opacity="0.06"></rect><rect x="431.16" y="344.16" width="26.68" height="26.68" rx="3.20" fill="#e2e2ff" fill-opacity="0.06"></rect><rect x="54.16" y="373.16" width="26.68" height="26.68" rx="3.20" fill="#e2e2ff" fill-opacity="0.06"></rect><rect x="199.16" y="373.16" width="26.68" height="26.68" rx="3.20" fill="#e2e2ff" fill-opacity="0.06"></rect><rect x="228.16" y="373.16" width="26.68" height="26.68" rx="3.20" fill="#e2e2ff" fill-opacity="0.06"></rect><rect x="257.16" y="373.16" width="26.68" height="26.68" rx="3.20" fill="#e2e2ff" fill-opacity="0.06"></rect><rect x="286.16" y="373.16" width="26.68" height="26.68" rx="3.20" fill="#e2e2ff" fill-opacity="0.06"></rect><rect x="315.16" y="373.16" width="26.68" height="26.68" rx="3.20" fill="#e2e2ff" fill-opacity="0.06"></rect><rect x="344.16" y="373.16" width="26.68" height="26.68" rx="3.20" fill="#e2e2ff" fill-opacity="0.06"></rect><rect x="373.16" y="373.16" width="26.68" height="26.68" rx="3.20" fill="#e2e2ff" fill-opacity="0.06"></rect><rect x="402.16" y="373.16" width="26.68" height="26.68" rx="3.20" fill="#e2e2ff" fill-opacity="0.06"></rect><rect x="431.16" y="373.16" width="26.68" height="26.68" rx="3.20" fill="#e2e2ff" fill-opacity="0.06"></rect><rect x="54.16" y="402.16" width="26.68" height="26.68" rx="3.20" fill="#e2e2ff" fill-opacity="0.06"></rect><rect x="83.16" y="402.16" width="26.68" height="26.68" rx="3.20" fill="#e2e2ff" fill-opacity="0.06"></rect><rect x="112.16" y="402.16" width="26.68" height="26.68" rx="3.20" fill="#e2e2ff" fill-opacity="0.06"></rect><rect x="141.16" y="402.16" width="26.68" height="26.68" rx="3.20" fill="#e2e2ff" fill-opacity="0.06"></rect><rect x="170.16" y="402.16" width="26.68" height="26.68" rx="3.20" fill="#e2e2ff" fill-opacity="0.06"></rect><rect x="199.16" y="402.16" width="26.68" height="26.68" rx="3.20" fill="#e2e2ff" fill-opacity="0.06"></rect><rect x="228.16" y="402.16" width="26.68" height="26.68" rx="3.20" fill="#e2e2ff" fill-opacity="0.06"></rect><rect x="257.16" y="402.16" width="26.68" height="26.68" rx="3.20" fill="#e2e2ff" fill-opacity="0.06"></rect><rect x="286.16" y="402.16" width="26.68" height="26.68" rx="3.20" fill="#e2e2ff" fill-opacity="0.06"></rect><rect x="315.16" y="402.16" width="26.68" height="26.68" rx="3.20" fill="#e2e2ff" fill-opacity="0.06"></rect><rect x="344.16" y="402.16" width="26.68" height="26.68" rx="3.20" fill="#e2e2ff" fill-opacity="0.06"></rect><rect x="373.16" y="402.16" width="26.68" height="26.68" rx="3.20" fill="#e2e2ff" fill-opacity="0.06"></rect><rect x="402.16" y="402.16" width="26.68" height="26.68" rx="3.20" fill="#e2e2ff" fill-opacity="0.06"></rect><rect x="431.16" y="402.16" width="26.68" height="26.68" rx="3.20" fill="#e2e2ff" fill-opacity="0.06"></rect><rect x="54.16" y="431.16" width="26.68" height="26.68" rx="3.20" fill="#e2e2ff" fill-opacity="0.06"></rect><rect x="83.16" y="431.16" width="26.68" height="26.68" rx="3.20" fill="#e2e2ff" fill-opacity="0.06"></rect><rect x="112.16" y="431.16" width="26.68" height="26.68" rx="3.20" fill="#e2e2ff" fill-opacity="0.06"></rect><rect x="141.16" y="431.16" width="26.68" height="26.68" rx="3.20" fill="#e2e2ff" fill-opacity="0.06"></rect><rect x="170.16" y="431.16" width="26.68" height="26.68" rx="3.20" fill="#e2e2ff" fill-opacity="0.06"></rect><rect x="199.16" y="431.16" width="26.68" height="26.68" rx="3.20" fill="#e2e2ff" fill-opacity="0.06"></rect><rect x="228.16" y="431.16" width="26.68" height="26.68" rx="3.20" fill="#e2e2ff" fill-opacity="0.06"></rect><rect x="257.16" y="431.16" width="26.68" height="26.68" rx="3.20" fill="#e2e2ff" fill-opacity="0.06"></rect><rect x="286.16" y="431.16" width="26.68" height="26.68" rx="3.20" fill="#e2e2ff" fill-opacity="0.06"></rect><rect x="315.16" y="431.16" width="26.68" height="26.68" rx="3.20" fill="#e2e2ff" fill-opacity="0.06"></rect><rect x="344.16" y="431.16" width="26.68" height="26.68" rx="3.20" fill="#e2e2ff" fill-opacity="0.06"></rect><rect x="373.16" y="431.16" width="26.68" height="26.68" rx="3.20" fill="#e2e2ff" fill-opacity="0.06"></rect><rect x="402.16" y="431.16" width="26.68" height="26.68" rx="3.20" fill="#e2e2ff" fill-opacity="0.06"></rect><rect x="431.16" y="431.16" width="26.68" height="26.68" rx="3.20" fill="#e2e2ff" fill-opacity="0.06"></rect></g>
<g filter="url(#bloom)" opacity="0.55"><rect x="25.16" y="25.16" width="26.68" height="26.68" rx="3.20" fill="#5b5a7d"></rect><rect x="54.16" y="25.16" width="26.68" height="26.68" rx="3.20" fill="#5b5a7d"></rect><rect x="83.16" y="25.16" width="26.68" height="26.68" rx="3.20" fill="#5b5a7d"></rect><rect x="112.16" y="25.16" width="26.68" height="26.68" rx="3.20" fill="#5b5a7d"></rect><rect x="141.16" y="25.16" width="26.68" height="26.68" rx="3.20" fill="#5b5a7d"></rect><rect x="170.16" y="25.16" width="26.68" height="26.68" rx="3.20" fill="#5b5a7d"></rect><rect x="199.16" y="25.16" width="26.68" height="26.68" rx="3.20" fill="#5b5a7d"></rect><rect x="228.16" y="25.16" width="26.68" height="26.68" rx="3.20" fill="#5b5a7d"></rect><rect x="257.16" y="25.16" width="26.68" height="26.68" rx="3.20" fill="#5b5a7d"></rect><rect x="286.16" y="25.16" width="26.68" height="26.68" rx="3.20" fill="#5b5a7d"></rect><rect x="315.16" y="25.16" width="26.68" height="26.68" rx="3.20" fill="#5b5a7d"></rect><rect x="344.16" y="25.16" width="26.68" height="26.68" rx="3.20" fill="#5b5a7d"></rect><rect x="373.16" y="25.16" width="26.68" height="26.68" rx="3.20" fill="#5b5a7d"></rect><rect x="402.16" y="25.16" width="26.68" height="26.68" rx="3.20" fill="#5b5a7d"></rect><rect x="431.16" y="25.16" width="26.68" height="26.68" rx="3.20" fill="#5b5a7d"></rect><rect x="460.16" y="25.16" width="26.68" height="26.68" rx="3.20" fill="#5b5a7d"></rect><rect x="25.16" y="54.16" width="26.68" height="26.68" rx="3.20" fill="#5b5a7d"></rect><rect x="460.16" y="54.16" width="26.68" height="26.68" rx="3.20" fill="#5b5a7d"></rect><rect x="25.16" y="83.16" width="26.68" height="26.68" rx="3.20" fill="#5b5a7d"></rect><rect x="83.16" y="83.16" width="26.68" height="26.68" rx="3.20" fill="#2bff3c"></rect><rect x="112.16" y="83.16" width="26.68" height="26.68" rx="3.20" fill="#2bff3c"></rect><rect x="141.16" y="83.16" width="26.68" height="26.68" rx="3.20" fill="#2bff3c"></rect><rect x="170.16" y="83.16" width="26.68" height="26.68" rx="3.20" fill="#2bff3c"></rect><rect x="199.16" y="83.16" width="26.68" height="26.68" rx="3.20" fill="#2bff3c"></rect><rect x="228.16" y="83.16" width="26.68" height="26.68" rx="3.20" fill="#2bff3c"></rect><rect x="257.16" y="83.16" width="26.68" height="26.68" rx="3.20" fill="#2bff3c"></rect><rect x="286.16" y="83.16" width="26.68" height="26.68" rx="3.20" fill="#2bff3c"></rect><rect x="315.16" y="83.16" width="26.68" height="26.68" rx="3.20" fill="#2bff3c"></rect><rect x="344.16" y="83.16" width="26.68" height="26.68" rx="3.20" fill="#2bff3c"></rect><rect x="373.16" y="83.16" width="26.68" height="26.68" rx="3.20" fill="#2bff3c"></rect><rect x="402.16" y="83.16" width="26.68" height="26.68" rx="3.20" fill="#2bff3c"></rect><rect x="460.16" y="83.16" width="26.68" height="26.68" rx="3.20" fill="#5b5a7d"></rect><rect x="25.16" y="112.16" width="26.68" height="26.68" rx="3.20" fill="#5b5a7d"></rect><rect x="460.16" y="112.16" width="26.68" height="26.68" rx="3.20" fill="#5b5a7d"></rect><rect x="25.16" y="141.16" width="26.68" height="26.68" rx="3.20" fill="#5b5a7d"></rect><rect x="460.16" y="141.16" width="26.68" height="26.68" rx="3.20" fill="#5b5a7d"></rect><rect x="25.16" y="170.16" width="26.68" height="26.68" rx="3.20" fill="#5b5a7d"></rect><rect x="83.16" y="170.16" width="26.68" height="26.68" rx="3.20" fill="#ffd21f"></rect><rect x="112.16" y="170.16" width="26.68" height="26.68" rx="3.20" fill="#ffd21f"></rect><rect x="141.16" y="170.16" width="26.68" height="26.68" rx="3.20" fill="#ffd21f"></rect><rect x="170.16" y="170.16" width="26.68" height="26.68" rx="3.20" fill="#ffd21f"></rect><rect x="199.16" y="170.16" width="26.68" height="26.68" rx="3.20" fill="#ffd21f"></rect><rect x="228.16" y="170.16" width="26.68" height="26.68" rx="3.20" fill="#ffd21f"></rect><rect x="257.16" y="170.16" width="26.68" height="26.68" rx="3.20" fill="#ffd21f"></rect><rect x="286.16" y="170.16" width="26.68" height="26.68" rx="3.20" fill="#ffd21f"></rect><rect x="315.16" y="170.16" width="26.68" height="26.68" rx="3.20" fill="#ffd21f"></rect><rect x="344.16" y="170.16" width="26.68" height="26.68" rx="3.20" fill="#ffd21f"></rect><rect x="460.16" y="170.16" width="26.68" height="26.68" rx="3.20" fill="#5b5a7d"></rect><rect x="25.16" y="199.16" width="26.68" height="26.68" rx="3.20" fill="#5b5a7d"></rect><rect x="83.16" y="199.16" width="26.68" height="26.68" rx="3.20" fill="#ffd21f"></rect><rect x="112.16" y="199.16" width="26.68" height="26.68" rx="3.20" fill="#ffd21f"></rect><rect x="141.16" y="199.16" width="26.68" height="26.68" rx="3.20" fill="#ffd21f"></rect><rect x="170.16" y="199.16" width="26.68" height="26.68" rx="3.20" fill="#ffd21f"></rect><rect x="199.16" y="199.16" width="26.68" height="26.68" rx="3.20" fill="#ffd21f"></rect><rect x="228.16" y="199.16" width="26.68" height="26.68" rx="3.20" fill="#ffd21f"></rect><rect x="257.16" y="199.16" width="26.68" height="26.68" rx="3.20" fill="#ffd21f"></rect><rect x="286.16" y="199.16" width="26.68" height="26.68" rx="3.20" fill="#ffd21f"></rect><rect x="315.16" y="199.16" width="26.68" height="26.68" rx="3.20" fill="#ffd21f"></rect><rect x="344.16" y="199.16" width="26.68" height="26.68" rx="3.20" fill="#ffd21f"></rect><rect x="460.16" y="199.16" width="26.68" height="26.68" rx="3.20" fill="#5b5a7d"></rect><rect x="25.16" y="228.16" width="26.68" height="26.68" rx="3.20" fill="#5b5a7d"></rect><rect x="460.16" y="228.16" width="26.68" height="26.68" rx="3.20" fill="#5b5a7d"></rect><rect x="25.16" y="257.16" width="26.68" height="26.68" rx="3.20" fill="#5b5a7d"></rect><rect x="83.16" y="257.16" width="26.68" height="26.68" rx="3.20" fill="#22e0ff"></rect><rect x="112.16" y="257.16" width="26.68" height="26.68" rx="3.20" fill="#22e0ff"></rect><rect x="141.16" y="257.16" width="26.68" height="26.68" rx="3.20" fill="#22e0ff"></rect><rect x="170.16" y="257.16" width="26.68" height="26.68" rx="3.20" fill="#22e0ff"></rect><rect x="199.16" y="257.16" width="26.68" height="26.68" rx="3.20" fill="#22e0ff"></rect><rect x="228.16" y="257.16" width="26.68" height="26.68" rx="3.20" fill="#22e0ff"></rect><rect x="257.16" y="257.16" width="26.68" height="26.68" rx="3.20" fill="#22e0ff"></rect><rect x="460.16" y="257.16" width="26.68" height="26.68" rx="3.20" fill="#5b5a7d"></rect><rect x="25.16" y="286.16" width="26.68" height="26.68" rx="3.20" fill="#5b5a7d"></rect><rect x="83.16" y="286.16" width="26.68" height="26.68" rx="3.20" fill="#22e0ff"></rect><rect x="112.16" y="286.16" width="26.68" height="26.68" rx="3.20" fill="#22e0ff"></rect><rect x="141.16" y="286.16" width="26.68" height="26.68" rx="3.20" fill="#22e0ff"></rect><rect x="170.16" y="286.16" width="26.68" height="26.68" rx="3.20" fill="#22e0ff"></rect><rect x="199.16" y="286.16" width="26.68" height="26.68" rx="3.20" fill="#22e0ff"></rect><rect x="228.16" y="286.16" width="26.68" height="26.68" rx="3.20" fill="#22e0ff"></rect><rect x="257.16" y="286.16" width="26.68" height="26.68" rx="3.20" fill="#22e0ff"></rect><rect x="460.16" y="286.16" width="26.68" height="26.68" rx="3.20" fill="#5b5a7d"></rect><rect x="25.16" y="315.16" width="26.68" height="26.68" rx="3.20" fill="#5b5a7d"></rect><rect x="460.16" y="315.16" width="26.68" height="26.68" rx="3.20" fill="#5b5a7d"></rect><rect x="25.16" y="344.16" width="26.68" height="26.68" rx="3.20" fill="#5b5a7d"></rect><rect x="83.16" y="344.16" width="26.68" height="26.68" rx="3.20" fill="#ff2b7a"></rect><rect x="112.16" y="344.16" width="26.68" height="26.68" rx="3.20" fill="#ff2b7a"></rect><rect x="141.16" y="344.16" width="26.68" height="26.68" rx="3.20" fill="#ff2b7a"></rect><rect x="170.16" y="344.16" width="26.68" height="26.68" rx="3.20" fill="#ff2b7a"></rect><rect x="460.16" y="344.16" width="26.68" height="26.68" rx="3.20" fill="#5b5a7d"></rect><rect x="25.16" y="373.16" width="26.68" height="26.68" rx="3.20" fill="#5b5a7d"></rect><rect x="83.16" y="373.16" width="26.68" height="26.68" rx="3.20" fill="#ff2b7a"></rect><rect x="112.16" y="373.16" width="26.68" height="26.68" rx="3.20" fill="#ff2b7a"></rect><rect x="141.16" y="373.16" width="26.68" height="26.68" rx="3.20" fill="#ff2b7a"></rect><rect x="170.16" y="373.16" width="26.68" height="26.68" rx="3.20" fill="#ff2b7a"></rect><rect x="460.16" y="373.16" width="26.68" height="26.68" rx="3.20" fill="#5b5a7d"></rect><rect x="25.16" y="402.16" width="26.68" height="26.68" rx="3.20" fill="#5b5a7d"></rect><rect x="460.16" y="402.16" width="26.68" height="26.68" rx="3.20" fill="#5b5a7d"></rect><rect x="25.16" y="431.16" width="26.68" height="26.68" rx="3.20" fill="#5b5a7d"></rect><rect x="460.16" y="431.16" width="26.68" height="26.68" rx="3.20" fill="#5b5a7d"></rect><rect x="25.16" y="460.16" width="26.68" height="26.68" rx="3.20" fill="#5b5a7d"></rect><rect x="54.16" y="460.16" width="26.68" height="26.68" rx="3.20" fill="#5b5a7d"></rect><rect x="83.16" y="460.16" width="26.68" height="26.68" rx="3.20" fill="#5b5a7d"></rect><rect x="112.16" y="460.16" width="26.68" height="26.68" rx="3.20" fill="#5b5a7d"></rect><rect x="141.16" y="460.16" width="26.68" height="26.68" rx="3.20" fill="#5b5a7d"></rect><rect x="170.16" y="460.16" width="26.68" height="26.68" rx="3.20" fill="#5b5a7d"></rect><rect x="199.16" y="460.16" width="26.68" height="26.68" rx="3.20" fill="#5b5a7d"></rect><rect x="228.16" y="460.16" width="26.68" height="26.68" rx="3.20" fill="#5b5a7d"></rect><rect x="257.16" y="460.16" width="26.68" height="26.68" rx="3.20" fill="#5b5a7d"></rect><rect x="286.16" y="460.16" width="26.68" height="26.68" rx="3.20" fill="#5b5a7d"></rect><rect x="315.16" y="460.16" width="26.68" height="26.68" rx="3.20" fill="#5b5a7d"></rect><rect x="344.16" y="460.16" width="26.68" height="26.68" rx="3.20" fill="#5b5a7d"></rect><rect x="373.16" y="460.16" width="26.68" height="26.68" rx="3.20" fill="#5b5a7d"></rect><rect x="402.16" y="460.16" width="26.68" height="26.68" rx="3.20" fill="#5b5a7d"></rect><rect x="431.16" y="460.16" width="26.68" height="26.68" rx="3.20" fill="#5b5a7d"></rect><rect x="460.16" y="460.16" width="26.68" height="26.68" rx="3.20" fill="#5b5a7d"></rect></g>
<g><rect x="25.16" y="25.16" width="26.68" height="26.68" rx="3.20" fill="#5b5a7d"></rect><rect x="54.16" y="25.16" width="26.68" height="26.68" rx="3.20" fill="#5b5a7d"></rect><rect x="83.16" y="25.16" width="26.68" height="26.68" rx="3.20" fill="#5b5a7d"></rect><rect x="112.16" y="25.16" width="26.68" height="26.68" rx="3.20" fill="#5b5a7d"></rect><rect x="141.16" y="25.16" width="26.68" height="26.68" rx="3.20" fill="#5b5a7d"></rect><rect x="170.16" y="25.16" width="26.68" height="26.68" rx="3.20" fill="#5b5a7d"></rect><rect x="199.16" y="25.16" width="26.68" height="26.68" rx="3.20" fill="#5b5a7d"></rect><rect x="228.16" y="25.16" width="26.68" height="26.68" rx="3.20" fill="#5b5a7d"></rect><rect x="257.16" y="25.16" width="26.68" height="26.68" rx="3.20" fill="#5b5a7d"></rect><rect x="286.16" y="25.16" width="26.68" height="26.68" rx="3.20" fill="#5b5a7d"></rect><rect x="315.16" y="25.16" width="26.68" height="26.68" rx="3.20" fill="#5b5a7d"></rect><rect x="344.16" y="25.16" width="26.68" height="26.68" rx="3.20" fill="#5b5a7d"></rect><rect x="373.16" y="25.16" width="26.68" height="26.68" rx="3.20" fill="#5b5a7d"></rect><rect x="402.16" y="25.16" width="26.68" height="26.68" rx="3.20" fill="#5b5a7d"></rect><rect x="431.16" y="25.16" width="26.68" height="26.68" rx="3.20" fill="#5b5a7d"></rect><rect x="460.16" y="25.16" width="26.68" height="26.68" rx="3.20" fill="#5b5a7d"></rect><rect x="25.16" y="54.16" width="26.68" height="26.68" rx="3.20" fill="#5b5a7d"></rect><rect x="460.16" y="54.16" width="26.68" height="26.68" rx="3.20" fill="#5b5a7d"></rect><rect x="25.16" y="83.16" width="26.68" height="26.68" rx="3.20" fill="#5b5a7d"></rect><rect x="83.16" y="83.16" width="26.68" height="26.68" rx="3.20" fill="#2bff3c"></rect><rect x="112.16" y="83.16" width="26.68" height="26.68" rx="3.20" fill="#2bff3c"></rect><rect x="141.16" y="83.16" width="26.68" height="26.68" rx="3.20" fill="#2bff3c"></rect><rect x="170.16" y="83.16" width="26.68" height="26.68" rx="3.20" fill="#2bff3c"></rect><rect x="199.16" y="83.16" width="26.68" height="26.68" rx="3.20" fill="#2bff3c"></rect><rect x="228.16" y="83.16" width="26.68" height="26.68" rx="3.20" fill="#2bff3c"></rect><rect x="257.16" y="83.16" width="26.68" height="26.68" rx="3.20" fill="#2bff3c"></rect><rect x="286.16" y="83.16" width="26.68" height="26.68" rx="3.20" fill="#2bff3c"></rect><rect x="315.16" y="83.16" width="26.68" height="26.68" rx="3.20" fill="#2bff3c"></rect><rect x="344.16" y="83.16" width="26.68" height="26.68" rx="3.20" fill="#2bff3c"></rect><rect x="373.16" y="83.16" width="26.68" height="26.68" rx="3.20" fill="#2bff3c"></rect><rect x="402.16" y="83.16" width="26.68" height="26.68" rx="3.20" fill="#2bff3c"></rect><rect x="460.16" y="83.16" width="26.68" height="26.68" rx="3.20" fill="#5b5a7d"></rect><rect x="25.16" y="112.16" width="26.68" height="26.68" rx="3.20" fill="#5b5a7d"></rect><rect x="460.16" y="112.16" width="26.68" height="26.68" rx="3.20" fill="#5b5a7d"></rect><rect x="25.16" y="141.16" width="26.68" height="26.68" rx="3.20" fill="#5b5a7d"></rect><rect x="460.16" y="141.16" width="26.68" height="26.68" rx="3.20" fill="#5b5a7d"></rect><rect x="25.16" y="170.16" width="26.68" height="26.68" rx="3.20" fill="#5b5a7d"></rect><rect x="83.16" y="170.16" width="26.68" height="26.68" rx="3.20" fill="#ffd21f"></rect><rect x="112.16" y="170.16" width="26.68" height="26.68" rx="3.20" fill="#ffd21f"></rect><rect x="141.16" y="170.16" width="26.68" height="26.68" rx="3.20" fill="#ffd21f"></rect><rect x="170.16" y="170.16" width="26.68" height="26.68" rx="3.20" fill="#ffd21f"></rect><rect x="199.16" y="170.16" width="26.68" height="26.68" rx="3.20" fill="#ffd21f"></rect><rect x="228.16" y="170.16" width="26.68" height="26.68" rx="3.20" fill="#ffd21f"></rect><rect x="257.16" y="170.16" width="26.68" height="26.68" rx="3.20" fill="#ffd21f"></rect><rect x="286.16" y="170.16" width="26.68" height="26.68" rx="3.20" fill="#ffd21f"></rect><rect x="315.16" y="170.16" width="26.68" height="26.68" rx="3.20" fill="#ffd21f"></rect><rect x="344.16" y="170.16" width="26.68" height="26.68" rx="3.20" fill="#ffd21f"></rect><rect x="460.16" y="170.16" width="26.68" height="26.68" rx="3.20" fill="#5b5a7d"></rect><rect x="25.16" y="199.16" width="26.68" height="26.68" rx="3.20" fill="#5b5a7d"></rect><rect x="83.16" y="199.16" width="26.68" height="26.68" rx="3.20" fill="#ffd21f"></rect><rect x="112.16" y="199.16" width="26.68" height="26.68" rx="3.20" fill="#ffd21f"></rect><rect x="141.16" y="199.16" width="26.68" height="26.68" rx="3.20" fill="#ffd21f"></rect><rect x="170.16" y="199.16" width="26.68" height="26.68" rx="3.20" fill="#ffd21f"></rect><rect x="199.16" y="199.16" width="26.68" height="26.68" rx="3.20" fill="#ffd21f"></rect><rect x="228.16" y="199.16" width="26.68" height="26.68" rx="3.20" fill="#ffd21f"></rect><rect x="257.16" y="199.16" width="26.68" height="26.68" rx="3.20" fill="#ffd21f"></rect><rect x="286.16" y="199.16" width="26.68" height="26.68" rx="3.20" fill="#ffd21f"></rect><rect x="315.16" y="199.16" width="26.68" height="26.68" rx="3.20" fill="#ffd21f"></rect><rect x="344.16" y="199.16" width="26.68" height="26.68" rx="3.20" fill="#ffd21f"></rect><rect x="460.16" y="199.16" width="26.68" height="26.68" rx="3.20" fill="#5b5a7d"></rect><rect x="25.16" y="228.16" width="26.68" height="26.68" rx="3.20" fill="#5b5a7d"></rect><rect x="460.16" y="228.16" width="26.68" height="26.68" rx="3.20" fill="#5b5a7d"></rect><rect x="25.16" y="257.16" width="26.68" height="26.68" rx="3.20" fill="#5b5a7d"></rect><rect x="83.16" y="257.16" width="26.68" height="26.68" rx="3.20" fill="#22e0ff"></rect><rect x="112.16" y="257.16" width="26.68" height="26.68" rx="3.20" fill="#22e0ff"></rect><rect x="141.16" y="257.16" width="26.68" height="26.68" rx="3.20" fill="#22e0ff"></rect><rect x="170.16" y="257.16" width="26.68" height="26.68" rx="3.20" fill="#22e0ff"></rect><rect x="199.16" y="257.16" width="26.68" height="26.68" rx="3.20" fill="#22e0ff"></rect><rect x="228.16" y="257.16" width="26.68" height="26.68" rx="3.20" fill="#22e0ff"></rect><rect x="257.16" y="257.16" width="26.68" height="26.68" rx="3.20" fill="#22e0ff"></rect><rect x="460.16" y="257.16" width="26.68" height="26.68" rx="3.20" fill="#5b5a7d"></rect><rect x="25.16" y="286.16" width="26.68" height="26.68" rx="3.20" fill="#5b5a7d"></rect><rect x="83.16" y="286.16" width="26.68" height="26.68" rx="3.20" fill="#22e0ff"></rect><rect x="112.16" y="286.16" width="26.68" height="26.68" rx="3.20" fill="#22e0ff"></rect><rect x="141.16" y="286.16" width="26.68" height="26.68" rx="3.20" fill="#22e0ff"></rect><rect x="170.16" y="286.16" width="26.68" height="26.68" rx="3.20" fill="#22e0ff"></rect><rect x="199.16" y="286.16" width="26.68" height="26.68" rx="3.20" fill="#22e0ff"></rect><rect x="228.16" y="286.16" width="26.68" height="26.68" rx="3.20" fill="#22e0ff"></rect><rect x="257.16" y="286.16" width="26.68" height="26.68" rx="3.20" fill="#22e0ff"></rect><rect x="460.16" y="286.16" width="26.68" height="26.68" rx="3.20" fill="#5b5a7d"></rect><rect x="25.16" y="315.16" width="26.68" height="26.68" rx="3.20" fill="#5b5a7d"></rect><rect x="460.16" y="315.16" width="26.68" height="26.68" rx="3.20" fill="#5b5a7d"></rect><rect x="25.16" y="344.16" width="26.68" height="26.68" rx="3.20" fill="#5b5a7d"></rect><rect x="83.16" y="344.16" width="26.68" height="26.68" rx="3.20" fill="#ff2b7a"></rect><rect x="112.16" y="344.16" width="26.68" height="26.68" rx="3.20" fill="#ff2b7a"></rect><rect x="141.16" y="344.16" width="26.68" height="26.68" rx="3.20" fill="#ff2b7a"></rect><rect x="170.16" y="344.16" width="26.68" height="26.68" rx="3.20" fill="#ff2b7a"></rect><rect x="460.16" y="344.16" width="26.68" height="26.68" rx="3.20" fill="#5b5a7d"></rect><rect x="25.16" y="373.16" width="26.68" height="26.68" rx="3.20" fill="#5b5a7d"></rect><rect x="83.16" y="373.16" width="26.68" height="26.68" rx="3.20" fill="#ff2b7a"></rect><rect x="112.16" y="373.16" width="26.68" height="26.68" rx="3.20" fill="#ff2b7a"></rect><rect x="141.16" y="373.16" width="26.68" height="26.68" rx="3.20" fill="#ff2b7a"></rect><rect x="170.16" y="373.16" width="26.68" height="26.68" rx="3.20" fill="#ff2b7a"></rect><rect x="460.16" y="373.16" width="26.68" height="26.68" rx="3.20" fill="#5b5a7d"></rect><rect x="25.16" y="402.16" width="26.68" height="26.68" rx="3.20" fill="#5b5a7d"></rect><rect x="460.16" y="402.16" width="26.68" height="26.68" rx="3.20" fill="#5b5a7d"></rect><rect x="25.16" y="431.16" width="26.68" height="26.68" rx="3.20" fill="#5b5a7d"></rect><rect x="460.16" y="431.16" width="26.68" height="26.68" rx="3.20" fill="#5b5a7d"></rect><rect x="25.16" y="460.16" width="26.68" height="26.68" rx="3.20" fill="#5b5a7d"></rect><rect x="54.16" y="460.16" width="26.68" height="26.68" rx="3.20" fill="#5b5a7d"></rect><rect x="83.16" y="460.16" width="26.68" height="26.68" rx="3.20" fill="#5b5a7d"></rect><rect x="112.16" y="460.16" width="26.68" height="26.68" rx="3.20" fill="#5b5a7d"></rect><rect x="141.16" y="460.16" width="26.68" height="26.68" rx="3.20" fill="#5b5a7d"></rect><rect x="170.16" y="460.16" width="26.68" height="26.68" rx="3.20" fill="#5b5a7d"></rect><rect x="199.16" y="460.16" width="26.68" height="26.68" rx="3.20" fill="#5b5a7d"></rect><rect x="228.16" y="460.16" width="26.68" height="26.68" rx="3.20" fill="#5b5a7d"></rect><rect x="257.16" y="460.16" width="26.68" height="26.68" rx="3.20" fill="#5b5a7d"></rect><rect x="286.16" y="460.16" width="26.68" height="26.68" rx="3.20" fill="#5b5a7d"></rect><rect x="315.16" y="460.16" width="26.68" height="26.68" rx="3.20" fill="#5b5a7d"></rect><rect x="344.16" y="460.16" width="26.68" height="26.68" rx="3.20" fill="#5b5a7d"></rect><rect x="373.16" y="460.16" width="26.68" height="26.68" rx="3.20" fill="#5b5a7d"></rect><rect x="402.16" y="460.16" width="26.68" height="26.68" rx="3.20" fill="#5b5a7d"></rect><rect x="431.16" y="460.16" width="26.68" height="26.68" rx="3.20" fill="#5b5a7d"></rect><rect x="460.16" y="460.16" width="26.68" height="26.68" rx="3.20" fill="#5b5a7d"></rect></g>
</svg>